<svg width="800" height="800" viewBox="0 0 800 800" fill="none" xmlns="http://www.w3.org/2000/svg">
<mask id="mask0_415_19" style="mask-type:alpha" maskUnits="userSpaceOnUse" x="38" y="86" width="725" height="628">
<mask id="mask1_415_19" style="mask-type:luminance" maskUnits="userSpaceOnUse" x="38" y="205" width="391" height="392">
<path d="M38 205.48H428.345V596.644H38V205.48Z" fill="white"/>
</mask>
<g mask="url(#mask1_415_19)">
<path d="M241.003 541.303V536.003L242.763 531.025L243.678 528.458L244.142 527.121C247.617 517.428 259.837 483.252 272.404 448.681C274.026 442.557 275.891 437.4 277.338 433.509L284.89 414.588C293.995 389.961 298.917 377.224 301.825 370.085H128.393C111.934 370.085 100.351 366.874 96.656 361.288C94.3047 357.742 94.6522 352.311 95.7873 347.13C109.722 308.847 122.069 275.637 124.953 269.764C131.081 257.289 150.285 250.449 164.324 245.364C164.555 245.257 186.887 235.528 255.481 235.528C323.995 235.528 346.373 245.245 346.384 245.245L348.678 246.152C356.299 248.432 379.535 255.367 384.886 268.164C386.844 272.856 391.419 284.793 398.137 302.723C405.932 301.088 415.65 299.5 427.546 298.223C420.515 279.362 414.191 262.709 411.515 256.322C400.998 231.159 370.257 221.465 357.62 217.705C351.064 214.924 324.018 205.625 255.481 205.625C185.474 205.625 158.752 215.33 152.972 217.848C135.841 223.972 110.382 233.248 99.0885 256.263C95.8568 262.852 84.7604 292.54 72.9342 324.879L72.3898 324.7C71.1736 327.959 69.4477 332.71 68.0693 338.201C54.6794 374.98 41.5791 411.651 38.9035 419.148L38 421.679V564.473C38 580.971 51.0076 594.376 67.0037 594.376H125C140.996 594.376 154.003 580.971 154.003 564.473V549.516H241.003V541.303ZM144.331 474.764C130.826 474.764 126.725 471.517 112.745 464.176C103.397 459.257 95.9958 454.638 95.9958 444.861C95.9958 436.6 103.212 429.904 112.108 429.904C118.189 429.904 137.046 429.904 144.331 429.904C157.663 429.904 168.505 439.931 168.505 452.334C168.505 464.725 157.663 474.764 144.331 474.764Z" fill="black"/>
</g>
<mask id="mask2_415_19" style="mask-type:luminance" maskUnits="userSpaceOnUse" x="268" y="324" width="440" height="390">
<path d="M268.223 324.663H707.077V714H268.223V324.663Z" fill="white"/>
</mask>
<g mask="url(#mask2_415_19)">
<path d="M704.077 538.7C701.957 532.91 652.267 396.789 643.51 375.91C632.969 350.758 602.24 341.077 589.614 337.293C583.07 334.536 556.012 325.236 487.488 325.236C417.48 325.236 390.758 334.941 384.967 337.472C367.847 343.584 342.388 352.871 331.083 375.887C327.851 382.476 316.767 412.152 304.929 444.502L304.396 444.311C303.18 447.582 301.454 452.333 300.076 457.801C286.686 494.592 273.585 531.263 270.898 538.772L269.995 541.302V684.085C269.995 700.583 283.002 714 298.998 714H356.994C372.99 714 385.998 700.583 385.998 684.085V669.14H589.001V684.085C589.001 700.583 602.008 714 618.004 714H676C691.996 714 705.004 700.583 705.004 684.085V541.255L704.077 538.7ZM376.326 594.376C362.832 594.376 358.72 591.129 344.751 583.787C335.392 578.869 328.002 574.25 328.002 564.473C328.002 556.2 335.207 549.515 344.114 549.515C350.183 549.515 369.052 549.515 376.326 549.515C389.67 549.515 400.5 559.555 400.5 571.946C400.5 584.349 389.67 594.376 376.326 594.376ZM630.271 583.787C616.278 591.129 612.166 594.376 598.672 594.376C585.329 594.376 574.499 584.349 574.499 571.946C574.499 559.555 585.329 549.515 598.672 549.515C605.946 549.515 624.827 549.515 630.884 549.515C639.78 549.515 646.996 556.2 646.996 564.473C646.996 574.25 639.572 578.869 630.271 583.787ZM645.78 481.293C644.112 483.8 637.718 489.709 614.634 489.709H360.388C343.94 489.709 332.369 486.498 328.651 480.923C326.299 477.378 326.647 471.934 327.782 466.778C341.716 428.483 354.075 395.273 356.959 389.4C363.075 376.925 382.291 370.085 396.318 365C396.561 364.88 418.882 355.139 487.488 355.139C556.012 355.139 578.367 364.856 578.391 364.856L580.672 365.776C588.306 368.044 611.518 374.979 616.881 387.788C620.309 395.941 630.688 423.672 641.877 453.885L641.796 453.921L642.653 456.153C644.807 461.812 649.881 475.038 645.78 481.293Z" fill="black"/>
</g>
<mask id="mask3_415_19" style="mask-type:luminance" maskUnits="userSpaceOnUse" x="366" y="86" width="398" height="392">
<path d="M366.076 86H763V477.462H366.076V86Z" fill="white"/>
</mask>
<g mask="url(#mask3_415_19)">
<path d="M762.073 299.464C759.953 293.686 710.251 157.552 701.506 136.686C690.965 111.546 660.236 101.853 647.61 98.0687C641.066 95.2992 614.008 86 545.483 86C475.476 86 448.754 95.6931 442.974 98.2358C425.832 104.348 400.384 113.635 389.09 136.65C388.083 138.68 385.407 144.183 368.589 189.855C375.006 191.825 384.886 195.227 395.554 200.837C409.442 163.091 413.704 152.694 414.955 150.151C421.071 137.677 440.287 130.825 454.337 125.739C454.557 125.644 476.889 115.903 545.483 115.903C614.008 115.903 636.375 125.62 636.386 125.62L638.68 126.539C646.301 128.807 669.514 135.743 674.888 148.552C678.305 156.717 688.683 184.435 699.884 214.637L699.78 214.685L700.637 216.929C702.791 222.575 707.888 235.814 703.776 242.057C702.096 244.588 695.703 250.473 672.606 250.473H440.565C440.692 250.807 440.866 251.297 441.017 251.643C441.851 253.78 442.824 256.298 443.901 259.104C444.121 259.653 444.33 260.273 444.561 260.834C445.708 263.879 447.005 267.269 448.441 271.041C448.638 271.59 448.824 272.103 449.044 272.652C450.723 277.153 452.542 281.964 454.604 287.467L457.789 295.99C466.835 295.584 476.634 295.333 487.488 295.333C553.754 295.333 585.421 303.582 599.008 308.99C606.56 311.258 620.402 315.651 634.336 324.174C637.962 316.033 646.591 310.303 656.668 310.303C663.954 310.303 682.834 310.303 688.892 310.303C697.776 310.291 705.004 316.988 705.004 325.237C705.004 335.013 697.579 339.633 688.266 344.551C677.656 350.138 672.71 353.337 665.019 354.555C666.838 357.599 668.68 360.619 670.127 364.057C675.653 377.212 695.923 432.016 711.641 474.764H733.996C749.992 474.764 763 461.346 763 444.861V302.018L762.073 299.464Z" fill="black"/>
</g>
</mask>
<g mask="url(#mask0_415_19)">
<rect y="1" width="800" height="800" fill="#D13434"/>
</g>
</svg>
